<svg version="1.1" xmlns="http://www.w3.org/2000/svg" xmlns:xlink="http://www.w3.org/1999/xlink" width="136.96997" height="73.50026" viewBox="0,0,136.96997,73.50026"><g transform="translate(-171.51501,-143.24987)"><g data-paper-data="{&quot;isPaintingLayer&quot;:true}" fill-rule="nonzero" stroke-linejoin="miter" stroke-miterlimit="10" stroke-dasharray="" stroke-dashoffset="0" style="mix-blend-mode: normal"><path d="M171.51501,201.90152c0,-37.73117 30.92049,-58.65165 68.65166,-58.65165c37.73117,0 68.31832,20.58715 68.31832,58.31832c0,37.73117 -29.92048,-8.01501 -67.65165,-8.01501c-37.73117,0 -69.31832,46.07951 -69.31832,8.34834z" fill="#274780" stroke="none" stroke-width="0" stroke-linecap="butt"/><path d="M196.5,177.5v16" fill="none" stroke="#8ba5d2" stroke-width="7.5" stroke-linecap="round"/><path d="M188.5,185.5h16" fill="none" stroke="#8ba5d2" stroke-width="7.5" stroke-linecap="round"/><path d="M287.26176,182.5c0,-2.23351 1.81061,-4.04412 4.04411,-4.04412c2.2335,0 4.04412,1.81061 4.04412,4.04412c0,2.23351 -1.81062,4.04412 -4.04412,4.04412c-2.2335,0 -4.04411,-1.81061 -4.04411,-4.04412z" fill="#8ba5d2" stroke="none" stroke-width="none" stroke-linecap="butt"/><path d="M277.55588,192.20588c0,-2.23351 1.81062,-4.04412 4.04412,-4.04412c2.2335,0 4.04412,1.81061 4.04412,4.04412c0,2.23351 -1.81061,4.04412 -4.04412,4.04412c-2.2335,0 -4.04412,-1.81061 -4.04412,-4.04412z" fill="#8ba5d2" stroke="none" stroke-width="none" stroke-linecap="butt"/><path d="M267.85,182.5c0,-2.23351 1.81061,-4.04412 4.04412,-4.04412c2.2335,0 4.04412,1.81061 4.04412,4.04412c0,2.23351 -1.81061,4.04412 -4.04412,4.04412c-2.2335,0 -4.04412,-1.81061 -4.04412,-4.04412z" fill="#8ba5d2" stroke="none" stroke-width="none" stroke-linecap="butt"/><path d="M277.55588,172.79412c0,-2.23351 1.81062,-4.04412 4.04412,-4.04412c2.2335,0 4.04412,1.81061 4.04412,4.04412c0,2.23351 -1.81061,4.04412 -4.04412,4.04412c-2.2335,0 -4.04412,-1.81061 -4.04412,-4.04412z" fill="#8ba5d2" stroke="none" stroke-width="none" stroke-linecap="butt"/></g></g></svg>